<svg width="1675" height="315" viewBox="0 0 1675 315" fill="none" xmlns="http://www.w3.org/2000/svg">
<path d="M1554.92 314.779C1532.81 314.779 1512.85 310.91 1495.02 303.173C1477.34 295.297 1462.76 284.106 1451.3 269.599C1439.97 254.953 1432.78 237.544 1429.74 217.372L1488.6 208.668C1492.75 225.8 1501.31 238.995 1514.3 248.252C1527.29 257.509 1542.07 262.138 1558.65 262.138C1567.91 262.138 1576.89 260.687 1585.59 257.785C1594.3 254.884 1601.41 250.601 1606.94 244.936C1612.6 239.271 1615.44 232.294 1615.44 224.004C1615.44 220.965 1614.95 218.063 1613.98 215.3C1613.16 212.398 1611.71 209.704 1609.63 207.217C1607.56 204.73 1604.59 202.381 1600.72 200.171C1596.99 197.96 1592.22 195.957 1586.42 194.161L1508.91 171.363C1503.11 169.705 1496.34 167.357 1488.6 164.317C1481 161.277 1473.61 156.925 1466.42 151.26C1459.24 145.596 1453.23 138.135 1448.39 128.878C1443.7 119.482 1441.35 107.669 1441.35 93.4383C1441.35 73.4044 1446.39 56.7555 1456.48 43.4917C1466.56 30.2279 1480.03 20.3491 1496.89 13.8553C1513.75 7.36156 1532.4 4.18377 1552.85 4.32195C1573.43 4.59827 1591.81 8.12148 1607.97 14.8916C1624.14 21.6616 1637.68 31.5404 1648.6 44.5279C1659.51 57.3773 1667.39 73.1281 1672.22 91.7803L1611.29 102.143C1609.08 92.4712 1605 84.3194 1599.06 77.6875C1593.12 71.0556 1586.01 66.0126 1577.72 62.5585C1569.56 59.1043 1561 57.2391 1552.02 56.9628C1543.18 56.6865 1534.82 57.9299 1526.94 60.6932C1519.2 63.3184 1512.85 67.187 1507.87 72.2991C1503.04 77.4112 1500.62 83.4904 1500.62 90.5369C1500.62 97.0306 1502.62 102.35 1506.63 106.495C1510.64 110.502 1515.68 113.749 1521.76 116.236C1527.84 118.722 1534.06 120.795 1540.41 122.453L1592.22 136.546C1599.96 138.618 1608.53 141.382 1617.92 144.836C1627.32 148.152 1636.3 152.849 1644.86 158.928C1653.57 164.87 1660.68 172.745 1666.21 182.555C1671.88 192.364 1674.71 204.799 1674.71 219.859C1674.71 235.886 1671.32 249.91 1664.55 261.93C1657.92 273.813 1648.94 283.691 1637.61 291.567C1626.28 299.304 1613.43 305.107 1599.06 308.976C1584.83 312.844 1570.12 314.779 1554.92 314.779Z" fill="#8B5CF6"/>
<path d="M1110.24 307.071V8.63525H1160.8L1259.45 206.764L1358.1 8.63525H1408.67V307.071H1356.03V128.839L1269.4 307.071H1249.51L1162.88 128.839V307.071H1110.24Z" fill="#8B5CF6"/>
<path d="M952.659 310.871C922.815 310.871 897.047 304.377 875.355 291.39C853.802 278.402 837.153 260.234 825.409 236.884C813.803 213.534 808 186.384 808 155.436C808 124.487 813.803 97.3372 825.409 73.9873C837.153 50.6374 853.802 32.4687 875.355 19.4812C897.047 6.49374 922.815 0 952.659 0C986.924 0 1015.66 8.49714 1038.87 25.4914C1062.22 42.4857 1078.67 65.4901 1088.2 94.5048L1031.41 110.256C1025.89 92.156 1016.56 78.1323 1003.43 68.1844C990.309 58.0983 973.383 53.0553 952.659 53.0553C933.73 53.0553 917.91 57.2693 905.199 65.6974C892.626 74.1255 883.162 86.0076 876.806 101.344C870.45 116.68 867.273 134.711 867.273 155.436C867.273 176.16 870.45 194.191 876.806 209.527C883.162 224.863 892.626 236.746 905.199 245.174C917.91 253.602 933.73 257.816 952.659 257.816C973.383 257.816 990.309 252.773 1003.43 242.687C1016.56 232.601 1025.89 218.577 1031.41 200.615L1088.2 216.366C1078.67 245.381 1062.22 268.385 1038.87 285.38C1015.66 302.374 986.924 310.871 952.659 310.871Z" fill="#8B5CF6"/>
<path d="M662.157 308.453C639.636 308.453 619.879 303.41 602.884 293.324C585.89 283.238 572.626 269.352 563.093 251.667C553.698 233.844 549 213.396 549 190.322C549 166.972 553.836 146.455 563.507 128.77C573.179 110.946 586.512 97.0607 603.506 87.1128C620.5 77.165 640.051 72.191 662.157 72.191C684.678 72.191 704.436 77.2341 721.43 87.3201C738.562 97.4061 751.895 111.361 761.429 129.184C770.962 146.869 775.729 167.248 775.729 190.322C775.729 213.534 770.893 234.051 761.221 251.874C751.688 269.56 738.355 283.445 721.223 293.531C704.228 303.479 684.54 308.453 662.157 308.453ZM662.157 255.812C680.257 255.812 693.728 249.733 702.57 237.574C711.551 225.278 716.041 209.527 716.041 190.322C716.041 170.426 711.482 154.537 702.363 142.655C693.382 130.773 679.98 124.832 662.157 124.832C649.86 124.832 639.774 127.595 631.899 133.122C624.024 138.648 618.152 146.316 614.283 156.126C610.553 165.936 608.687 177.335 608.687 190.322C608.687 210.356 613.178 226.314 622.158 238.196C631.277 249.94 644.61 255.812 662.157 255.812Z" fill="#8B5CF6"/>
<path d="M418 302.236V78.4086H467.739V133.122L462.351 126.075C465.252 118.338 469.121 111.292 473.957 104.936C478.793 98.5807 484.734 93.3304 491.78 89.1854C497.168 85.8695 503.041 83.3134 509.396 81.5173C515.752 79.583 522.314 78.4086 529.085 77.9941C535.855 77.4414 542.625 77.5796 549.395 78.4086V131.049C543.177 129.115 535.924 128.493 527.634 129.184C519.482 129.737 512.09 131.602 505.458 134.78C498.826 137.819 493.231 141.895 488.671 147.007C484.112 151.981 480.658 157.922 478.309 164.831C475.96 171.601 474.786 179.269 474.786 187.835V302.236H418Z" fill="#8B5CF6"/>
<path d="M259.609 308.262C243.582 308.262 229.973 305.222 218.781 299.143C207.728 292.926 199.3 284.705 193.497 274.481C187.832 264.118 185 252.72 185 240.285C185 229.922 186.589 220.458 189.767 211.892C192.944 203.326 198.057 195.796 205.103 189.302C212.288 182.67 221.89 177.143 233.91 172.722C242.2 169.683 252.079 166.988 263.547 164.64C275.014 162.291 288.002 160.08 302.509 158.008C317.017 155.797 332.975 153.379 350.383 150.754L330.073 161.945C330.073 148.681 326.895 138.941 320.54 132.723C314.184 126.506 303.545 123.397 288.624 123.397C280.334 123.397 271.698 125.401 262.718 129.408C253.737 133.414 247.451 140.53 243.858 150.754L192.875 134.589C198.54 116.075 209.179 101.015 224.791 89.4088C240.404 77.8029 261.682 72 288.624 72C308.381 72 325.928 75.0396 341.265 81.1188C356.601 87.1981 368.207 97.6987 376.082 112.62C380.503 120.91 383.128 129.2 383.957 137.49C384.786 145.78 385.201 155.037 385.201 165.261V302.045H335.876V256.036L342.922 265.569C332.007 280.629 320.194 291.544 307.483 298.314C294.91 304.946 278.952 308.262 259.609 308.262ZM271.629 263.911C281.992 263.911 290.696 262.115 297.743 258.523C304.927 254.792 310.592 250.578 314.737 245.881C319.02 241.183 321.921 237.245 323.441 234.067C326.343 227.988 328.001 220.942 328.415 212.928C328.968 204.776 329.244 198.006 329.244 192.618L345.824 196.763C329.106 199.526 315.566 201.875 305.203 203.809C294.841 205.605 286.482 207.263 280.127 208.783C273.771 210.303 268.175 211.961 263.34 213.757C257.813 215.968 253.323 218.386 249.868 221.011C246.552 223.498 244.066 226.261 242.408 229.301C240.888 232.34 240.128 235.725 240.128 239.456C240.128 244.568 241.371 248.989 243.858 252.72C246.483 256.312 250.145 259.075 254.842 261.01C259.54 262.944 265.136 263.911 271.629 263.911Z" fill="#8B5CF6"/>
<path d="M94.0903 302.436V56.6408H0V4H244.552V56.6408H150.462V302.436H94.0903Z" fill="#8B5CF6"/>
</svg>
